<svg id="Layer_1" data-name="Layer 1" xmlns="http://www.w3.org/2000/svg" viewBox="0 0 1399.77 157.95"><title>chualinhquang-logo</title><path d="M114.58,150.71q-12.26,6.36-30.5,6.36-23.61,0-37.84-14.91T32,103q0-26,16-42.08t40.45-16q15.74,0,26.11,4.47V67.23a46.6,46.6,0,0,0-24.22-6.51Q72.73,60.72,61.79,72T50.85,102.12q0,17.94,10.22,28.57t26.87,10.63q15.36,0,26.64-7.27Z" transform="translate(-32.01 -11.91)" style="fill:#f44336"/><path d="M222.35,155.25H204.26V108.17H153.18v47.08h-18V46.72h18V92.36h51.09V46.72h18.09Z" transform="translate(-32.01 -11.91)" style="fill:#f44336"/><path d="M332.62,111.35q0,45.71-43.29,45.71-41.48,0-41.47-44V46.72h18v62.67q0,31.94,24.82,31.94,23.92,0,23.92-30.8V46.72h18Zm-31-74.62H288.5L268.67,11.91h16.2Z" transform="translate(-32.01 -11.91)" style="fill:#f44336"/><path d="M447.28,155.25H427.53l-9.76-27.62H375.08l-9.38,27.63H346L386.66,46.72h20.28ZM413,112.94,397.94,69.65a51.12,51.12,0,0,1-1.44-6.81h-.3a44.34,44.34,0,0,1-1.51,6.81l-14.91,43.29Z" transform="translate(-32.01 -11.91)" style="fill:#f44336"/><path d="M564.9,155.25H504.8V46.72h18V140H564.9Z" transform="translate(-32.01 -11.91)"/><path d="M599,155.25H580.49V46.72H599Z" transform="translate(-32.01 -11.91)"/><path d="M717.78,155.25H698.1L646.26,75.48A35.27,35.27,0,0,1,643,69.2h-.45q.6,3.48.61,14.91v71.14H625.75V46.72h21l50.1,77.88q3.18,4.85,4.09,6.66h.3a96.37,96.37,0,0,1-.76-14.61V46.72h17.33Z" transform="translate(-32.01 -11.91)"/><path d="M831.83,155.25H813.75V108.17H762.66v47.08h-18V46.72h18V92.36h51.09V46.72h18.09Z" transform="translate(-32.01 -11.91)"/><path d="M946,157.07a54.35,54.35,0,0,1-21.27-4,46.65,46.65,0,0,1-16.27-11.24A50.74,50.74,0,0,1,898,124.52a63.93,63.93,0,0,1-3.71-22.25A70.46,70.46,0,0,1,898,78.66a51.62,51.62,0,0,1,10.67-18.09A47,47,0,0,1,925.53,49,57.68,57.68,0,0,1,947.7,44.9a52.25,52.25,0,0,1,20.74,4,46.28,46.28,0,0,1,16,11.24,51,51,0,0,1,10.33,17.29,64.3,64.3,0,0,1,3.67,22.18q0,16-5.37,28.12A48.34,48.34,0,0,1,978,147.15l31.48,22.71h-27.4L962.69,154.8a66.64,66.64,0,0,1-8,1.67A60.49,60.49,0,0,1,946,157.07Zm.83-96.35a31.42,31.42,0,0,0-13.58,2.91,31,31,0,0,0-10.63,8.25,38.5,38.5,0,0,0-6.92,12.75,52.21,52.21,0,0,0-2.46,16.5,53.45,53.45,0,0,0,2.38,16.42,38.16,38.16,0,0,0,6.7,12.68A29.94,29.94,0,0,0,946,141.32a34.49,34.49,0,0,0,14-2.72,29,29,0,0,0,10.56-7.83,35.62,35.62,0,0,0,6.7-12.53,55.92,55.92,0,0,0,2.35-16.88,60.08,60.08,0,0,0-2.27-17.26,36.46,36.46,0,0,0-6.51-12.75,27.9,27.9,0,0,0-10.33-7.91A33.31,33.31,0,0,0,946.8,60.72Z" transform="translate(-32.01 -11.91)"/><path d="M1101.87,111.35q0,45.71-43.29,45.71-41.48,0-41.47-44V46.72h18v62.67q0,31.94,24.82,31.94,23.92,0,23.92-30.8V46.72h18Z" transform="translate(-32.01 -11.91)"/><path d="M1213.28,155.25h-19.75l-9.76-27.62h-42.69l-9.38,27.63H1112l40.64-108.53h20.28ZM1179,112.94l-15.06-43.29a51.3,51.3,0,0,1-1.44-6.81h-.3a44.34,44.34,0,0,1-1.51,6.81l-14.91,43.29Z" transform="translate(-32.01 -11.91)"/><path d="M1320.22,155.25h-19.68L1248.7,75.48a35.21,35.21,0,0,1-3.25-6.28H1245q.6,3.48.61,14.91v71.14h-17.41V46.72h21l50.1,77.88q3.18,4.85,4.09,6.66h.3a96.37,96.37,0,0,1-.76-14.61V46.72h17.33Z" transform="translate(-32.01 -11.91)"/><path d="M1431.78,147.83a77.65,77.65,0,0,1-37.77,9.23q-24.07,0-39-15t-14.91-39.66q0-25.2,16.31-41.36t41.44-16.16q18.09,0,30.42,5.3V68.74q-12.49-8.32-29.74-8.33t-28.42,11.43Q1359,83.28,1359,101.44q0,18.69,9.54,29.4t25.88,10.71q11.2,0,19.38-4.31V111.43H1391V96.29h40.79Z" transform="translate(-32.01 -11.91)"/></svg>